<?xml version="1.0" encoding="UTF-8" standalone="no"?>
<svg
   xmlns:dc="http://purl.org/dc/elements/1.1/"
   xmlns:cc="http://creativecommons.org/ns#"
   xmlns:rdf="http://www.w3.org/1999/02/22-rdf-syntax-ns#"
   xmlns:svg="http://www.w3.org/2000/svg"
   xmlns="http://www.w3.org/2000/svg"
   xmlns:sodipodi="http://sodipodi.sourceforge.net/DTD/sodipodi-0.dtd"
   xmlns:inkscape="http://www.inkscape.org/namespaces/inkscape"
   width="19.6"
   height="20"
   viewBox="0 0 19.6 20"
   version="1.1"
   id="svg955"
   sodipodi:docname="google_icon.svg"
   style="fill:none"
   inkscape:version="0.92.5 (2060ec1f9f, 2020-04-08)">
  <metadata
     id="metadata961">
    <rdf:RDF>
      <cc:Work
         rdf:about="">
        <dc:format>image/svg+xml</dc:format>
        <dc:type
           rdf:resource="http://purl.org/dc/dcmitype/StillImage" />
        <dc:title></dc:title>
      </cc:Work>
    </rdf:RDF>
  </metadata>
  <defs
     id="defs959" />
  <sodipodi:namedview
     pagecolor="#ffffff"
     bordercolor="#666666"
     borderopacity="1"
     objecttolerance="10"
     gridtolerance="10"
     guidetolerance="10"
     inkscape:pageopacity="0"
     inkscape:pageshadow="2"
     inkscape:window-width="1366"
     inkscape:window-height="711"
     id="namedview957"
     showgrid="false"
     showborder="false"
     fit-margin-top="0"
     fit-margin-left="0"
     fit-margin-right="0"
     fit-margin-bottom="0"
     inkscape:zoom="17.458333"
     inkscape:cx="10"
     inkscape:cy="10"
     inkscape:window-x="0"
     inkscape:window-y="0"
     inkscape:window-maximized="1"
     inkscape:current-layer="svg955" />
  <path
     d="M 9.99,11.9 V 8.18 h 9.36 C 19.49,8.81 19.6,9.4 19.6,10.23 19.6,15.94 15.77,20 10,20 4.48,20 0,15.52 0,10 0,4.48 4.48,0 10,0 c 2.7,0 4.96,0.99 6.69,2.61 L 13.85,5.37 C 13.13,4.69 11.87,3.89 10,3.89 c -3.31,0 -6.01,2.75 -6.01,6.12 0,3.37 2.7,6.12 6.01,6.12 3.83,0 5.24,-2.65 5.5,-4.22 H 9.99 Z"
     id="path953"
     style="fill:#ffffff"
     inkscape:connector-curvature="0" />
</svg>
